inDegrees=no
num_controls=7
num_derivatives=13
num_iterations=86
num_multipliers=7
num_parameters=0
num_slacks=7
num_states=26
objective=0.422147
objective_accelerations=0.064212
objective_balance=0.001326
objective_effort=0.016102
objective_height=0.334576
objective_ligament=0.005932
solver_duration=1291.698216
status=Solve_Succeeded
success=true
DataType=double
version=3
OpenSimVersion=4.5
endheader
time	/jointset/ground_pelvis/pelvis_tilt/value	/jointset/ground_pelvis/pelvis_tx/value	/jointset/ground_pelvis/pelvis_ty/value	/jointset/hip_l/hip_flexion_l/value	/jointset/hip_l/hip_adduction_l/value	/jointset/hip_l/hip_rotation_l/value	/jointset/back/lumbar_extension/value	/jointset/patellofemoral_l/patellar_flexion_l/value	/jointset/knee_l/knee_flexion_l/value	/jointset/knee_l/knee_adduction_l/value	/jointset/knee_l/knee_rotation_l/value	/jointset/ankle_l/ankle_angle_l/value	/jointset/subtalar_l/subtalar_angle_l/value	/jointset/ground_pelvis/pelvis_tilt/speed	/jointset/ground_pelvis/pelvis_tx/speed	/jointset/ground_pelvis/pelvis_ty/speed	/jointset/hip_l/hip_flexion_l/speed	/jointset/hip_l/hip_adduction_l/speed	/jointset/hip_l/hip_rotation_l/speed	/jointset/back/lumbar_extension/speed	/jointset/patellofemoral_l/patellar_flexion_l/speed	/jointset/knee_l/knee_flexion_l/speed	/jointset/knee_l/knee_adduction_l/speed	/jointset/knee_l/knee_rotation_l/speed	/jointset/ankle_l/ankle_angle_l/speed	/jointset/subtalar_l/subtalar_angle_l/speed	/forceset/tau_hip_flexion_l	/forceset/tau_hip_adduction_l	/forceset/tau_hip_rotation_l	/forceset/tau_knee_flexion_l	/forceset/tau_ankle_angle_l	/forceset/tau_subtalar_angle_l	/forceset/tau_lumbar_extension	lambda_cid13_p0	lambda_cid13_p1	lambda_cid13_p2	lambda_cid13_p3	lambda_cid13_p4	lambda_cid13_p5	lambda_cid14_p0	/jointset/ground_pelvis/pelvis_tilt/accel	/jointset/ground_pelvis/pelvis_tx/accel	/jointset/ground_pelvis/pelvis_ty/accel	/jointset/hip_l/hip_flexion_l/accel	/jointset/hip_l/hip_adduction_l/accel	/jointset/hip_l/hip_rotation_l/accel	/jointset/back/lumbar_extension/accel	/jointset/patellofemoral_l/patellar_flexion_l/accel	/jointset/knee_l/knee_flexion_l/accel	/jointset/knee_l/knee_adduction_l/accel	/jointset/knee_l/knee_rotation_l/accel	/jointset/ankle_l/ankle_angle_l/accel	/jointset/subtalar_l/subtalar_angle_l/accel	gamma_cid13_p0	gamma_cid13_p1	gamma_cid13_p2	gamma_cid13_p3	gamma_cid13_p4	gamma_cid13_p5	gamma_cid14_p0
0	0.04886657666373869	0.1076851746516334	0.9030138771984653	0.1266922784136757	-0.3688644073716178	-0.2230347057007095	-0.2144969558742783	0.20515450701419	0.2051545070141877	-0.1721198196136981	-0.1577528183121713	0.09024313228550125	0.08027541382192936	0	0	0	0	0	0	0	0	0	0	0	0	0	0.1153814606444272	-0.06174651880599888	-0.00873515885107627	-0.2450001685514498	0.1775618953758307	-0.08224359328871857	-0.04971015479778407	26.59529899061595	32.01214780309799	-6.47020688360333	-16.85471286085045	-436.1717350270224	-52.27438332622852	-26.14616809006828	-3.578518432301722	-1.259898099359597	-0.9499957803096121	12.72151890715842	-0.2118933981988015	3.568920261230667	-3.874065460251547	11.96155151881388	11.96155151881086	2.476425911910218	-1.094204483465087	3.892305365079424	0.8990271005599582	2.783296997693808e-09	6.08677612304226e-07	6.971432069743517e-08	2.66646521994373e-08	1.172438836833295e-07	1.022748278732124e-07	4.857034412485446e-08
0.01	0.04869360677268102	0.1076224778772579	0.9029679831690568	0.1273119498437521	-0.3688720524684521	-0.2228501432253306	-0.2146951700300643	0.2057342296706128	0.2057342296706179	-0.171995171699407	-0.1577936513047437	0.09043106462822809	0.08032146983167752	-0.03473038884280903	-0.01254048871455878	-0.009134190860871831	0.1235784333254276	-0.001328409216297103	0.03661886918244835	-0.03933016211791894	0.1150299926029105	0.1150299926029368	0.02509442375333024	-0.008009182560363445	0.03715496374715192	0.009303907549618892	0.1139650522338543	-0.07228281688058931	-0.008250401268085581	-0.2431996422636888	0.170480767987834	-0.07069845959241293	-0.04845229509936296	24.87270392870835	27.06575648363691	-5.414383491432729	-15.61339988182771	-438.0105800239669	-62.66642072913164	-26.14637551853658	-3.440768487881275	-1.251289000670243	-0.8884150370661601	12.12262097266025	-0.06333198292766909	3.664335612902225	-3.915591231565636	11.13653261462353	11.13653261462833	2.550788699978279	-0.6306657659678471	3.562385621662313	0.9598740950875116	-7.7323328788342e-10	9.882907623524071e-07	-7.856895719767751e-08	9.14039412884131e-08	-1.501182723915401e-07	2.87877047236426e-07	1.216910578719547e-07
0.02	0.0481692391176704	0.1074343432671034	0.9028320903714213	0.1291567286925678	-0.3688869851173648	-0.2223081989848972	-0.2152773057358304	0.2074368141497914	0.2074368141497912	-0.1716146119289928	-0.1579098542476344	0.09097760535685191	0.08046332521950685	-0.07027955279003262	-0.02508756715580899	-0.01799975364541598	0.2450214837478666	-0.001457510415893713	0.07147635301090789	-0.07678430999597141	0.2245723645495747	0.2245723645496011	0.05118237122401545	-0.01507399006656359	0.07172167717947137	0.01915987561622429	0.1125486438232891	-0.08281911495517608	-0.00776564368517576	-0.2413991159759329	0.1633996405998303	-0.05915332589610438	-0.04719443540092279	23.20322660796669	22.12318788641525	-4.374163372972312	-14.42448812451029	-438.8946257270171	-72.8603787082648	-26.14640319071033	-3.742273453184554	-1.261216044697948	-0.8962701650440722	12.29444232656068	0.02796820514129495	3.216643190432903	-3.498862612278215	10.8640273875646	10.86402738755636	2.675130655381207	-0.9053294726324393	3.374655302112858	1.009439203957234	-4.329763573460648e-09	1.367903912400588e-06	-2.268522350927902e-07	1.561432303773889e-07	-4.174804284664097e-07	4.734792665996398e-07	1.948117716190549e-07
0.03	0.04728849074705047	0.1071214258392905	0.9026082402151141	0.132203953635725	-0.3688996756411217	-0.2214261677764592	-0.2162241634702508	0.2102136927703438	0.2102136927703376	-0.1709718000405543	-0.1580947274002234	0.0918605999415541	0.08070498949123069	-0.1056192702786922	-0.03742192636700187	-0.02677956357594762	0.3638031286955079	-0.001143215678050576	0.104845079643382	-0.1122995314523669	0.3304024341962358	0.3304024341962239	0.07711390407497146	-0.02181773692709524	0.1047808002401113	0.0290824318838178	0.1082483886952627	-0.07762025218550125	-0.006823831165662759	-0.2367396894184046	0.1582953295550674	-0.06130126500426213	-0.04391509488174317	21.48403812222407	23.22985557051544	-4.405302304455845	-13.55548451396586	-438.2372669230253	-69.68288931277246	-26.14549603476237	-3.392180536141776	-1.208415563326441	-0.8703138773741199	11.57697364305099	0.02359742345603445	3.384342208887301	-3.534696096857224	10.38231869086087	10.38231869086027	2.512457635761196	-0.5465311913307728	3.257115770720272	0.9698931531407434	-1.097107424018797e-08	1.505630321876591e-06	-1.85566620403623e-07	1.759282820194344e-07	-5.580396997032344e-07	4.561868387834787e-07	2.115648684500229e-07
